<?xml version="1.0" standalone="no"?>
<!DOCTYPE svg PUBLIC "-//W3C//DTD SVG 20010904//EN"
 "http://www.w3.org/TR/2001/REC-SVG-20010904/DTD/svg10.dtd">
<svg version="1.0" xmlns="http://www.w3.org/2000/svg"
 width="256.000000pt" height="256.000000pt" viewBox="0 0 256.000000 256.000000"
 preserveAspectRatio="xMidYMid meet">

<g transform="translate(0.000000,256.000000) scale(0.100000,-0.100000)"
fill="#000000" stroke="none">
<path d="M156 2523 c3 -21 49 -537 104 -1147 54 -609 102 -1112 107 -1116 4
-5 211 -64 460 -133 l452 -125 453 125 c249 69 457 129 461 133 5 4 53 507
107 1116 55 610 101 1126 104 1147 l4 37 -1128 0 -1128 0 4 -37z m1831 -495
c-4 -35 -10 -100 -13 -145 l-7 -83 -540 0 -540 0 7 -87 c4 -49 10 -112 13
-140 l6 -53 513 0 c483 0 514 -1 514 -17 -2 -50 -77 -853 -81 -857 -2 -2 -133
-40 -291 -83 l-287 -80 -293 81 -293 82 -17 179 c-9 99 -17 201 -17 228 l-1
47 144 0 144 0 7 -77 c12 -153 12 -151 58 -164 23 -6 92 -24 152 -41 l110 -29
158 42 c120 32 157 46 157 58 0 9 7 81 15 161 8 80 15 153 15 163 0 16 -30 17
-490 17 -470 0 -490 1 -490 18 0 11 -16 194 -35 408 -19 214 -35 399 -35 411
l0 23 711 0 712 0 -6 -62z"/>
</g>
</svg>
